<?xml version="1.0" standalone="no"?>
<!DOCTYPE svg PUBLIC "-//W3C//DTD SVG 20010904//EN"
 "http://www.w3.org/TR/2001/REC-SVG-20010904/DTD/svg10.dtd">
<svg version="1.0" xmlns="http://www.w3.org/2000/svg"
 width="600.000000pt" height="600.000000pt" viewBox="0 0 600.000000 600.000000"
 preserveAspectRatio="xMidYMid meet">

<g transform="translate(0.000000,600.000000) scale(0.100000,-0.100000)"
fill="#000000" stroke="none">
<path d="M1780 4759 c-521 -48 -1002 -328 -1298 -757 -369 -534 -413 -1245
-113 -1817 276 -527 781 -872 1376 -941 110 -13 310 -14 1325 -11 1169 3 1197
4 1300 25 200 40 335 85 494 166 182 93 341 211 478 354 461 483 611 1184 388
1817 -136 385 -425 730 -782 933 -237 136 -464 206 -743 232 -135 12 -2287 11
-2425 -1z m2504 -719 c104 -23 173 -48 269 -96 99 -50 150 -87 250 -183 144
-139 240 -302 294 -500 23 -84 26 -116 27 -256 0 -120 -4 -178 -17 -233 -67
-278 -227 -509 -458 -661 -150 -99 -304 -153 -489 -171 -124 -12 -2196 -12
-2320 0 -243 24 -448 116 -620 278 -178 167 -286 359 -331 587 -17 90 -17 300
0 390 73 376 348 690 708 811 159 54 121 52 1403 53 1154 1 1198 0 1284 -19z"/>
</g>
</svg>
