<?xml version="1.0" ?>
<!-- Uploaded to: SVG Repo, www.svgrepo.com, Generator: SVG Repo Mixer Tools -->
<svg width="800px" height="800px" viewBox="0 0 512 512" id="Layer_1" version="1.1" xml:space="preserve" xmlns="http://www.w3.org/2000/svg" xmlns:xlink="http://www.w3.org/1999/xlink">
<style type="text/css">
	.st0{fill:#6040EC;}
	.st1{fill:#0BDC49;}
</style>
<g>
<path class="st0" d="M256,470c-118,0-214-96-214-214S138,42,256,42s214,96,214,214S374,470,256,470z M256,66   C151.2,66,66,151.2,66,256s85.2,190,190,190s190-85.2,190-190S360.8,66,256,66z"/>
</g>
<g>
<path class="st1" d="M231.5,331.5c-6,0-11.8-2.5-15.9-6.8l-55.3-57.9c-4.6-4.8-4.4-12.4,0.4-17c4.8-4.6,12.4-4.4,17,0.4l53.8,56.3   l102.4-121.8c4.3-5.1,11.8-5.7,16.9-1.5c5.1,4.3,5.7,11.8,1.5,16.9L248.4,323.7c-4,4.8-9.9,7.6-16.1,7.8   C232,331.5,231.8,331.5,231.5,331.5z"/>
</g>
</svg>